# xmcd CD database file
#
# Track frame offsets:
#	187
#	22422
#	46875
#	69067
#
# Disc length: 1246 seconds
#
# Revision: 0
# Processed by: cddbd v1.5.1PL0 Copyright (c) Steve Scherf et al.
# Submitted via: CDex 1.51
#
DISCID=2d04dc04
DTITLE=益田宏美 - 益田宏美 - 愛という名の勇気
DYEAR=1993
DGENRE=J-POP
TTITLE0=愛という名の勇気
TTITLE1=未来への伝言
TTITLE2=愛という名の勇気（カラオケ）
TTITLE3=未来への伝言（カラオケ）
EXTD=YEAR: 1993
EXTT0=
EXTT1=
EXTT2=
EXTT3=
PLAYORDER=
